PathFileType	4	(X/Y/Z)	/Users/itak/Documents/Research/Walk-IL/dataset/trc/00099_00007.trc
DataRate	CameraRate	NumFrames	NumMarkers	Units	OrigDataRate	OrigDataStartFrame	OrigNumFrames
100.000000	100.000000	4	53	mm	100.000000	65	523
Frame#	Time	RPSI			LPSI			L3			STRN			T10			C7			CLAV			RBAK			LBAK			LSHO			LUPA			LAEL			LAOL			LWTS			LWPS			LFRA			LIFD			LHPS			LHTS			RSHO			RUPA			RAEL			RAOL			RWTS			RWPS			RFRA			RIFD			RHTS			RHPS			RBHD			LFHD			RFHD			LBHD			LHIP			RHIP			RASI			LASI			LKNE			LTHI			LANK			LTIP			LTOE			LMT1			LMT5			LHEE			RKNE			RTHI			RANK			RTIP			RTOE			RMT1			RMT5			RHEE			
		X1	Y1	Z1	X2	Y2	Z2	X3	Y3	Z3	X4	Y4	Z4	X5	Y5	Z5	X6	Y6	Z6	X7	Y7	Z7	X8	Y8	Z8	X9	Y9	Z9	X10	Y10	Z10	X11	Y11	Z11	X12	Y12	Z12	X13	Y13	Z13	X14	Y14	Z14	X15	Y15	Z15	X16	Y16	Z16	X17	Y17	Z17	X18	Y18	Z18	X19	Y19	Z19	X20	Y20	Z20	X21	Y21	Z21	X22	Y22	Z22	X23	Y23	Z23	X24	Y24	Z24	X25	Y25	Z25	X26	Y26	Z26	X27	Y27	Z27	X28	Y28	Z28	X29	Y29	Z29	X30	Y30	Z30	X31	Y31	Z31	X32	Y32	Z32	X33	Y33	Z33	X34	Y34	Z34	X35	Y35	Z35	X36	Y36	Z36	X37	Y37	Z37	X38	Y38	Z38	X39	Y39	Z39	X40	Y40	Z40	X41	Y41	Z41	X42	Y42	Z42	X43	Y43	Z43	X44	Y44	Z44	X45	Y45	Z45	X46	Y46	Z46	X47	Y47	Z47	X48	Y48	Z48	X49	Y49	Z49	X50	Y50	Z50	X51	Y51	Z51	X52	Y52	Z52	X53	Y53	Z53	

66	0.65	-1825.769409179688	1124.350952148438	-266.4244995117188	-1822.039916992188	1125.993896484375	-400.697265625	-1832.1435546875	1156.236083984375	-336.4985656738281	-1620.972290039062	1362.139770507812	-330.7570190429688	-1874.720703125	1305.90234375	-338.5324401855469	-1843.47705078125	1599.093505859375	-352.685302734375	-1658.904296875	1496.878295898438	-335.7826232910156	-1898.0869140625	1413.711791992188	-267.4299926757812	-1847.209838867188	1579.700805664062	-454.6932067871094	-1757.584350585938	1568.751586914062	-519.4918823242188	-1772.960571289062	1435.833862304688	-589.4384765625	-1753.556396484375	1216.620239257812	-609.3886108398438	-1819.152465820312	1201.931762695312	-552.579833984375	-1644.099731445312	964.7282104492188	-567.2052001953125	-1724.350463867188	935.1072387695312	-591.747802734375	-1733.478393554688	1101.770141601562	-612.763427734375	-1625.437133789062	771.8716430664062	-541.8063354492188	-1691.287963867188	861.4068603515625	-592.47705078125	-1624.633056640625	875.3805541992188	-577.1036987304688	-1797.753173828125	1582.392211914062	-169.49365234375	-1815.193237304688	1508.601196289062	-106.0337600708008	-1812.665405273438	1213.328125	-82.18026733398438	-1818.626953125	1210.964477539062	-179.4103088378906	-1654.15087890625	978.8889770507812	-95.16758728027344	-1728.474853515625	957.6253662109375	-63.61595916748047	-1785.519653320312	1141.2099609375	-66.53989410400391	-1620.890991210938	785.0242919921875	-111.9174728393555	-1620.313354492188	871.366455078125	-89.3995361328125	-1688.515991210938	860.3137817382812	-58.02035903930664	-1820.869140625	1766.154907226562	-269.4019165039062	-1663.49658203125	1849.456298828125	-400.6755676269531	-1665.460327148438	1853.6748046875	-271.024169921875	-1826.514770507812	1765.457763671875	-404.6846008300781	-1726.315551757812	1037.662353515625	-505.0961608886719	-1701.18505859375	1029.765625	-145.8687286376953	-1619.026977539062	1105.042846679688	-195.8533630371094	-1619.697265625	1106.39794921875	-462.7233276367188	-1707.450927734375	536.1118774414062	-471.7266845703125	-1726.242797851562	682.5428466796875	-499.4382934570312	-1830.15234375	37.03243637084961	-457.1837158203125	-1814.901611328125	290.8804931640625	-493.1825256347656	-1596.2734375	37.0927619934082	-407.2345581054688	-1677.211791992188	40.64274978637695	-371.6091613769531	-1705.170532226562	34.35666656494141	-487.9300231933594	-1896.156127929688	37.13725662231445	-390.9083251953125	-1714.190063476562	537.335205078125	-184.7064514160156	-1683.723876953125	816.4251708984375	-153.2982788085938	-1824.673217773438	28.20270729064941	-212.9842987060547	-1744.321411132812	403.6431579589844	-175.6185455322266	-1590.745727539062	41.27899551391602	-255.1946105957031	-1649.877319335938	31.88688850402832	-298.9051818847656	-1692.222045898438	36.82719039916992	-184.0098571777344	-1879.785766601562	31.90608406066895	-264.4675598144531	
67	0.66	-1825.791748046875	1124.324340820312	-266.3554992675781	-1822.113159179688	1125.98095703125	-400.6229553222656	-1832.202270507812	1156.216186523438	-336.4300231933594	-1621.078247070312	1362.11376953125	-330.7657470703125	-1874.89404296875	1306.039794921875	-338.5838012695312	-1843.503662109375	1599.086547851562	-352.6507873535156	-1659.036010742188	1496.863525390625	-335.795166015625	-1898.1259765625	1413.7080078125	-267.3652648925781	-1847.296997070312	1579.670776367188	-454.6318054199219	-1757.654418945312	1568.706909179688	-519.4896850585938	-1773.02880859375	1435.790771484375	-589.387451171875	-1753.482177734375	1216.56640625	-609.3219604492188	-1819.087768554688	1201.85107421875	-552.5176391601562	-1643.848388671875	964.7813720703125	-567.1234741210938	-1723.986450195312	935.0812377929688	-591.6019897460938	-1733.325805664062	1101.728759765625	-612.6778564453125	-1624.978271484375	771.964599609375	-541.672119140625	-1690.882568359375	861.4302368164062	-592.3265991210938	-1624.19140625	875.4723510742188	-576.9402465820312	-1797.76611328125	1582.387084960938	-169.450927734375	-1815.185668945312	1508.588989257812	-106.0105972290039	-1812.675048828125	1213.308837890625	-82.14926147460938	-1818.66259765625	1210.959350585938	-179.3847045898438	-1654.210815429688	978.8408203125	-95.22518920898438	-1728.5234375	957.6077880859375	-63.64711380004883	-1785.534423828125	1141.192626953125	-66.53139495849609	-1620.919555664062	784.9862060546875	-111.9595489501953	-1620.351928710938	871.3368530273438	-89.48616027832031	-1688.616577148438	860.2990112304688	-58.0964241027832	-1820.8388671875	1766.157348632812	-269.4295959472656	-1663.478515625	1849.410522460938	-400.7351989746094	-1665.438110351562	1853.665649414062	-271.0831909179688	-1826.523803710938	1765.418701171875	-404.6978149414062	-1726.422119140625	1037.666381835938	-505.0704650878906	-1701.1376953125	1029.75048828125	-145.8478088378906	-1619.022827148438	1105.045043945312	-195.8625030517578	-1619.817993164062	1106.408569335938	-462.7627563476562	-1707.4248046875	536.1123046875	-471.7187194824219	-1726.264892578125	682.5430908203125	-499.43310546875	-1830.148315429688	37.01965713500977	-457.1954040527344	-1814.875	290.8683166503906	-493.1867370605469	-1596.275268554688	37.0941162109375	-407.2321472167969	-1677.212524414062	40.64239501953125	-371.6065673828125	-1705.172119140625	34.35820007324219	-487.9299926757812	-1896.16259765625	37.12444305419922	-390.9220886230469	-1713.843383789062	537.28369140625	-184.7471923828125	-1683.573608398438	816.379150390625	-153.2744750976562	-1824.666870117188	28.21112632751465	-212.9988403320312	-1743.996704101562	403.5820007324219	-175.6588287353516	-1590.730590820312	41.285888671875	-255.2017211914062	-1649.873168945312	31.87647819519043	-298.9195556640625	-1692.209594726562	36.84648895263672	-184.02978515625	-1879.78369140625	31.90350914001465	-264.4726867675781	
68	0.67	-1825.795288085938	1124.299682617188	-266.27099609375	-1822.174682617188	1125.968383789062	-400.53955078125	-1832.244506835938	1156.19921875	-336.3464965820312	-1621.169555664062	1362.091674804688	-330.7751770019531	-1875.023315429688	1306.12939453125	-338.5830993652344	-1843.529174804688	1599.074951171875	-352.6072082519531	-1659.175537109375	1496.844604492188	-335.8107604980469	-1898.154418945312	1413.698364257812	-267.2892761230469	-1847.384399414062	1579.64013671875	-454.5588989257812	-1757.731567382812	1568.661865234375	-519.4791259765625	-1773.101806640625	1435.747192382812	-589.3239135742188	-1753.402221679688	1216.514892578125	-609.2442626953125	-1819.013671875	1201.77490234375	-552.4427490234375	-1643.584350585938	964.8302001953125	-567.0184936523438	-1723.622924804688	935.0559692382812	-591.4408569335938	-1733.166870117188	1101.684448242188	-612.5767211914062	-1624.578979492188	772.063232421875	-541.5211791992188	-1690.50390625	861.4537353515625	-592.1571044921875	-1623.749877929688	875.5537719726562	-576.759521484375	-1797.771606445312	1582.378662109375	-169.4009246826172	-1815.167236328125	1508.572875976562	-105.9819793701172	-1812.67724609375	1213.286987304688	-82.11433410644531	-1818.692016601562	1210.951293945312	-179.3571624755859	-1654.259765625	978.78369140625	-95.28007507324219	-1728.565307617188	957.5885009765625	-63.67137145996094	-1785.541259765625	1141.172973632812	-66.51741790771484	-1620.939819335938	784.9467163085938	-112.0010147094727	-1620.3759765625	871.3085327148438	-89.56813049316406	-1688.703369140625	860.28662109375	-58.16469192504883	-1820.7998046875	1766.166137695312	-269.4389038085938	-1663.447387695312	1849.355590820312	-400.7915649414062	-1665.395263671875	1853.652709960938	-271.1393127441406	-1826.514770507812	1765.38232421875	-404.6903076171875	-1726.543579101562	1037.672973632812	-505.0473327636719	-1701.0576171875	1029.738037109375	-145.8233947753906	-1619.000122070312	1105.047485351562	-195.8809967041016	-1619.949096679688	1106.416259765625	-462.8118286132812	-1707.400634765625	536.1134643554688	-471.7143249511719	-1726.289794921875	682.5451049804688	-499.4300537109375	-1830.145263671875	37.01157379150391	-457.2048645019531	-1814.851928710938	290.8579711914062	-493.1874084472656	-1596.277099609375	37.09563064575195	-407.2314147949219	-1677.213012695312	40.64215850830078	-371.6051025390625	-1705.173950195312	34.3603630065918	-487.9309387207031	-1896.166259765625	37.10900497436523	-390.9308471679688	-1713.527709960938	537.23291015625	-184.7836608886719	-1683.408569335938	816.3426513671875	-153.2615814208984	-1824.658569335938	28.21686744689941	-213.0099487304688	-1743.714965820312	403.5231323242188	-175.6911926269531	-1590.714477539062	41.29204559326172	-255.2088012695312	-1649.869384765625	31.86397361755371	-298.93505859375	-1692.1953125	36.86518859863281	-184.0482635498047	-1879.781616210938	31.90195465087891	-264.4748840332031	
69	0.68	-1825.779052734375	1124.278198242188	-266.1726379394531	-1822.221801757812	1125.95556640625	-400.446533203125	-1832.26611328125	1156.185668945312	-336.2494506835938	-1621.245239257812	1362.072998046875	-330.7853698730469	-1875.109497070312	1306.176391601562	-338.5331726074219	-1843.552001953125	1599.05810546875	-352.5545959472656	-1659.309814453125	1496.822998046875	-335.8270568847656	-1898.171997070312	1413.682373046875	-267.2025146484375	-1847.470458984375	1579.60888671875	-454.4763793945312	-1757.817260742188	1568.616455078125	-519.460693359375	-1773.178833007812	1435.701293945312	-589.248046875	-1753.317504882812	1216.46533203125	-609.1563110351562	-1818.931274414062	1201.70166015625	-552.3572998046875	-1643.302978515625	964.8748779296875	-566.8836059570312	-1723.267211914062	935.03173828125	-591.2685546875	-1733.002685546875	1101.637573242188	-612.4613037109375	-1624.23046875	772.1636962890625	-541.350341796875	-1690.149658203125	861.4747314453125	-591.9713134765625	-1623.322265625	875.622802734375	-576.5650634765625	-1797.766845703125	1582.366333007812	-169.3441162109375	-1815.136962890625	1508.552856445312	-105.9482116699219	-1812.670043945312	1213.26220703125	-82.07639312744141	-1818.713623046875	1210.940063476562	-179.3270416259766	-1654.296875	978.7178344726562	-95.32944488525391	-1728.598510742188	957.5663452148438	-63.68716812133789	-1785.538330078125	1141.150390625	-66.49839019775391	-1620.95361328125	784.9044799804688	-112.0425872802734	-1620.385620117188	871.2777099609375	-89.64488220214844	-1688.7763671875	860.2734985351562	-58.22505187988281	-1820.753173828125	1766.181762695312	-269.42724609375	-1663.40478515625	1849.292602539062	-400.8445739746094	-1665.331176757812	1853.6357421875	-271.19287109375	-1826.487426757812	1765.347778320312	-404.6590881347656	-1726.685302734375	1037.680786132812	-505.0283203125	-1700.943969726562	1029.7265625	-145.7946166992188	-1618.957275390625	1105.049194335938	-195.9081420898438	-1620.088256835938	1106.418823242188	-462.8710327148438	-1707.3798828125	536.1151123046875	-471.7144165039062	-1726.319213867188	682.5489501953125	-499.4293212890625	-1830.144165039062	37.00750350952148	-457.2109985351562	-1814.83251953125	290.8491516113281	-493.1835632324219	-1596.279663085938	37.09714889526367	-407.2326965332031	-1677.213012695312	40.64211654663086	-371.6049499511719	-1705.176391601562	34.36325836181641	-487.932373046875	-1896.165893554688	37.09030532836914	-390.9323425292969	-1713.2578125	537.1848754882812	-184.8125457763672	-1683.237060546875	816.3172607421875	-153.25927734375	-1824.64990234375	28.21927070617676	-213.0164794921875	-1743.483642578125	403.4678039550781	-175.713134765625	-1590.700805664062	41.29800033569336	-255.2149963378906	-1649.86767578125	31.84969711303711	-298.9502868652344	-1692.181640625	36.8810920715332	-184.0642852783203	-1879.779663085938	31.90088081359863	-264.4740905761719	
